<mxfile host="app.diagrams.net" modified="2023-09-14T07:57:08.725Z" agent="Mozilla/5.0 (Windows NT 10.0; Win64; x64) AppleWebKit/537.36 (KHTML, like Gecko) Chrome/116.0.0.0 Safari/537.36" etag="Pri0aMaQm0OrC9fu8-F4" version="21.7.2" type="device">
  <diagram name="Page-1" id="agQErlFYgJaacKDEuBH9">
    <mxGraphModel dx="1000" dy="516" grid="1" gridSize="10" guides="1" tooltips="1" connect="1" arrows="1" fold="1" page="1" pageScale="1" pageWidth="850" pageHeight="1100" math="0" shadow="0">
      <root>
        <mxCell id="0" />
        <mxCell id="1" parent="0" />
        <mxCell id="QmyyMq0J052jUOqY0bEI-6" style="edgeStyle=orthogonalEdgeStyle;rounded=0;orthogonalLoop=1;jettySize=auto;html=1;entryX=0.5;entryY=0;entryDx=0;entryDy=0;" edge="1" parent="1" source="QmyyMq0J052jUOqY0bEI-1" target="QmyyMq0J052jUOqY0bEI-2">
          <mxGeometry relative="1" as="geometry" />
        </mxCell>
        <mxCell id="QmyyMq0J052jUOqY0bEI-1" value="START" style="strokeWidth=2;html=1;shape=mxgraph.flowchart.start_1;whiteSpace=wrap;" vertex="1" parent="1">
          <mxGeometry x="350" y="10" width="100" height="70" as="geometry" />
        </mxCell>
        <mxCell id="QmyyMq0J052jUOqY0bEI-12" style="edgeStyle=orthogonalEdgeStyle;rounded=0;orthogonalLoop=1;jettySize=auto;html=1;entryX=0.5;entryY=0;entryDx=0;entryDy=0;entryPerimeter=0;" edge="1" parent="1" source="QmyyMq0J052jUOqY0bEI-2" target="QmyyMq0J052jUOqY0bEI-11">
          <mxGeometry relative="1" as="geometry" />
        </mxCell>
        <mxCell id="QmyyMq0J052jUOqY0bEI-2" value="INPUT NILAI" style="shape=parallelogram;html=1;strokeWidth=2;perimeter=parallelogramPerimeter;whiteSpace=wrap;rounded=1;arcSize=0;size=0.23;" vertex="1" parent="1">
          <mxGeometry x="350" y="120" width="100" height="60" as="geometry" />
        </mxCell>
        <mxCell id="QmyyMq0J052jUOqY0bEI-14" style="edgeStyle=orthogonalEdgeStyle;rounded=0;orthogonalLoop=1;jettySize=auto;html=1;entryX=0.5;entryY=0;entryDx=0;entryDy=0;entryPerimeter=0;" edge="1" parent="1" source="QmyyMq0J052jUOqY0bEI-11" target="QmyyMq0J052jUOqY0bEI-13">
          <mxGeometry relative="1" as="geometry" />
        </mxCell>
        <mxCell id="QmyyMq0J052jUOqY0bEI-20" style="edgeStyle=orthogonalEdgeStyle;rounded=0;orthogonalLoop=1;jettySize=auto;html=1;entryX=0;entryY=0.5;entryDx=0;entryDy=0;" edge="1" parent="1" source="QmyyMq0J052jUOqY0bEI-11" target="QmyyMq0J052jUOqY0bEI-17">
          <mxGeometry relative="1" as="geometry" />
        </mxCell>
        <mxCell id="QmyyMq0J052jUOqY0bEI-11" value="IF NILAI &amp;gt; 90" style="strokeWidth=2;html=1;shape=mxgraph.flowchart.decision;whiteSpace=wrap;" vertex="1" parent="1">
          <mxGeometry x="350" y="240" width="100" height="100" as="geometry" />
        </mxCell>
        <mxCell id="QmyyMq0J052jUOqY0bEI-16" style="edgeStyle=orthogonalEdgeStyle;rounded=0;orthogonalLoop=1;jettySize=auto;html=1;entryX=0.5;entryY=0;entryDx=0;entryDy=0;entryPerimeter=0;" edge="1" parent="1" source="QmyyMq0J052jUOqY0bEI-13" target="QmyyMq0J052jUOqY0bEI-15">
          <mxGeometry relative="1" as="geometry" />
        </mxCell>
        <mxCell id="QmyyMq0J052jUOqY0bEI-22" style="edgeStyle=orthogonalEdgeStyle;rounded=0;orthogonalLoop=1;jettySize=auto;html=1;" edge="1" parent="1" source="QmyyMq0J052jUOqY0bEI-13" target="QmyyMq0J052jUOqY0bEI-21">
          <mxGeometry relative="1" as="geometry" />
        </mxCell>
        <mxCell id="QmyyMq0J052jUOqY0bEI-13" value="IF NILAI &amp;gt;75 AND &amp;lt; 89" style="strokeWidth=2;html=1;shape=mxgraph.flowchart.decision;whiteSpace=wrap;fontSize=8;" vertex="1" parent="1">
          <mxGeometry x="350" y="410" width="100" height="100" as="geometry" />
        </mxCell>
        <mxCell id="QmyyMq0J052jUOqY0bEI-54" style="edgeStyle=orthogonalEdgeStyle;rounded=0;orthogonalLoop=1;jettySize=auto;html=1;" edge="1" parent="1" source="QmyyMq0J052jUOqY0bEI-15" target="QmyyMq0J052jUOqY0bEI-23">
          <mxGeometry relative="1" as="geometry" />
        </mxCell>
        <mxCell id="QmyyMq0J052jUOqY0bEI-60" style="edgeStyle=orthogonalEdgeStyle;rounded=0;orthogonalLoop=1;jettySize=auto;html=1;entryX=0.5;entryY=0;entryDx=0;entryDy=0;entryPerimeter=0;" edge="1" parent="1" source="QmyyMq0J052jUOqY0bEI-15" target="QmyyMq0J052jUOqY0bEI-27">
          <mxGeometry relative="1" as="geometry" />
        </mxCell>
        <mxCell id="QmyyMq0J052jUOqY0bEI-15" value="IF NILAI &amp;lt; 75" style="strokeWidth=2;html=1;shape=mxgraph.flowchart.decision;whiteSpace=wrap;" vertex="1" parent="1">
          <mxGeometry x="350" y="600" width="100" height="100" as="geometry" />
        </mxCell>
        <mxCell id="QmyyMq0J052jUOqY0bEI-52" style="edgeStyle=orthogonalEdgeStyle;rounded=0;orthogonalLoop=1;jettySize=auto;html=1;entryX=0.5;entryY=0;entryDx=0;entryDy=0;" edge="1" parent="1" source="QmyyMq0J052jUOqY0bEI-17" target="QmyyMq0J052jUOqY0bEI-21">
          <mxGeometry relative="1" as="geometry" />
        </mxCell>
        <mxCell id="QmyyMq0J052jUOqY0bEI-17" value="A" style="shape=parallelogram;html=1;strokeWidth=2;perimeter=parallelogramPerimeter;whiteSpace=wrap;rounded=1;arcSize=0;size=0.23;" vertex="1" parent="1">
          <mxGeometry x="540" y="260" width="100" height="60" as="geometry" />
        </mxCell>
        <mxCell id="QmyyMq0J052jUOqY0bEI-53" style="edgeStyle=orthogonalEdgeStyle;rounded=0;orthogonalLoop=1;jettySize=auto;html=1;entryX=0.5;entryY=0;entryDx=0;entryDy=0;" edge="1" parent="1" source="QmyyMq0J052jUOqY0bEI-21" target="QmyyMq0J052jUOqY0bEI-23">
          <mxGeometry relative="1" as="geometry" />
        </mxCell>
        <mxCell id="QmyyMq0J052jUOqY0bEI-21" value="B" style="shape=parallelogram;html=1;strokeWidth=2;perimeter=parallelogramPerimeter;whiteSpace=wrap;rounded=1;arcSize=0;size=0.23;" vertex="1" parent="1">
          <mxGeometry x="540" y="430" width="100" height="60" as="geometry" />
        </mxCell>
        <mxCell id="QmyyMq0J052jUOqY0bEI-62" value="" style="edgeStyle=orthogonalEdgeStyle;rounded=0;orthogonalLoop=1;jettySize=auto;html=1;" edge="1" parent="1" source="QmyyMq0J052jUOqY0bEI-23" target="QmyyMq0J052jUOqY0bEI-61">
          <mxGeometry relative="1" as="geometry" />
        </mxCell>
        <mxCell id="QmyyMq0J052jUOqY0bEI-23" value="C" style="shape=parallelogram;html=1;strokeWidth=2;perimeter=parallelogramPerimeter;whiteSpace=wrap;rounded=1;arcSize=0;size=0.23;" vertex="1" parent="1">
          <mxGeometry x="540" y="620" width="100" height="60" as="geometry" />
        </mxCell>
        <mxCell id="QmyyMq0J052jUOqY0bEI-27" value="END" style="strokeWidth=2;html=1;shape=mxgraph.flowchart.start_1;whiteSpace=wrap;" vertex="1" parent="1">
          <mxGeometry x="350" y="790" width="100" height="60" as="geometry" />
        </mxCell>
        <mxCell id="QmyyMq0J052jUOqY0bEI-45" value="YES" style="text;html=1;align=center;verticalAlign=middle;resizable=0;points=[];autosize=1;strokeColor=none;fillColor=none;" vertex="1" parent="1">
          <mxGeometry x="435" y="238" width="50" height="30" as="geometry" />
        </mxCell>
        <mxCell id="QmyyMq0J052jUOqY0bEI-46" value="NO" style="text;html=1;align=center;verticalAlign=middle;resizable=0;points=[];autosize=1;strokeColor=none;fillColor=none;" vertex="1" parent="1">
          <mxGeometry x="440" y="318" width="40" height="30" as="geometry" />
        </mxCell>
        <mxCell id="QmyyMq0J052jUOqY0bEI-47" value="YES" style="text;html=1;align=center;verticalAlign=middle;resizable=0;points=[];autosize=1;strokeColor=none;fillColor=none;" vertex="1" parent="1">
          <mxGeometry x="435" y="408" width="50" height="30" as="geometry" />
        </mxCell>
        <mxCell id="QmyyMq0J052jUOqY0bEI-48" value="NO" style="text;html=1;align=center;verticalAlign=middle;resizable=0;points=[];autosize=1;strokeColor=none;fillColor=none;" vertex="1" parent="1">
          <mxGeometry x="440" y="478" width="40" height="30" as="geometry" />
        </mxCell>
        <mxCell id="QmyyMq0J052jUOqY0bEI-49" value="YES" style="text;html=1;align=center;verticalAlign=middle;resizable=0;points=[];autosize=1;strokeColor=none;fillColor=none;" vertex="1" parent="1">
          <mxGeometry x="435" y="608" width="50" height="30" as="geometry" />
        </mxCell>
        <mxCell id="QmyyMq0J052jUOqY0bEI-50" value="NO" style="text;html=1;align=center;verticalAlign=middle;resizable=0;points=[];autosize=1;strokeColor=none;fillColor=none;" vertex="1" parent="1">
          <mxGeometry x="440" y="678" width="40" height="30" as="geometry" />
        </mxCell>
        <mxCell id="QmyyMq0J052jUOqY0bEI-63" style="edgeStyle=orthogonalEdgeStyle;rounded=0;orthogonalLoop=1;jettySize=auto;html=1;" edge="1" parent="1" source="QmyyMq0J052jUOqY0bEI-61">
          <mxGeometry relative="1" as="geometry">
            <mxPoint x="400" y="780" as="targetPoint" />
          </mxGeometry>
        </mxCell>
        <mxCell id="QmyyMq0J052jUOqY0bEI-61" value="" style="shape=waypoint;sketch=0;size=6;pointerEvents=1;points=[];fillColor=default;resizable=0;rotatable=0;perimeter=centerPerimeter;snapToPoint=1;strokeWidth=2;rounded=1;arcSize=0;" vertex="1" parent="1">
          <mxGeometry x="580" y="770" width="20" height="20" as="geometry" />
        </mxCell>
        <mxCell id="QmyyMq0J052jUOqY0bEI-64" value="Actor" style="shape=umlActor;verticalLabelPosition=bottom;verticalAlign=top;html=1;outlineConnect=0;" vertex="1" parent="1">
          <mxGeometry x="250" y="463" width="30" height="60" as="geometry" />
        </mxCell>
        <mxCell id="QmyyMq0J052jUOqY0bEI-66" value="THIS IS MY FLOWCHART&amp;nbsp;" style="shape=callout;whiteSpace=wrap;html=1;perimeter=calloutPerimeter;" vertex="1" parent="1">
          <mxGeometry x="220" y="370" width="120" height="80" as="geometry" />
        </mxCell>
        <mxCell id="QmyyMq0J052jUOqY0bEI-68" value="" style="ellipse;whiteSpace=wrap;html=1;strokeWidth=2;fillWeight=2;hachureGap=8;fillColor=#990000;fillStyle=dots;sketch=1;" vertex="1" parent="1">
          <mxGeometry x="205" y="500" width="120" height="60" as="geometry" />
        </mxCell>
        <mxCell id="QmyyMq0J052jUOqY0bEI-69" value="" style="verticalLabelPosition=bottom;verticalAlign=top;html=1;shape=mxgraph.basic.sun" vertex="1" parent="1">
          <mxGeometry x="190" y="430" width="60" height="48" as="geometry" />
        </mxCell>
        <mxCell id="QmyyMq0J052jUOqY0bEI-70" value="Actor" style="shape=umlActor;verticalLabelPosition=bottom;verticalAlign=top;html=1;" vertex="1" parent="1">
          <mxGeometry x="110" y="463" width="30" height="60" as="geometry" />
        </mxCell>
        <mxCell id="QmyyMq0J052jUOqY0bEI-71" value="" style="verticalLabelPosition=bottom;verticalAlign=top;html=1;shape=mxgraph.basic.cone" vertex="1" parent="1">
          <mxGeometry x="115" y="415" width="20" height="48" as="geometry" />
        </mxCell>
        <mxCell id="QmyyMq0J052jUOqY0bEI-72" value="" style="verticalLabelPosition=bottom;verticalAlign=top;html=1;shape=mxgraph.basic.smiley" vertex="1" parent="1">
          <mxGeometry x="115" y="463" width="20" height="20" as="geometry" />
        </mxCell>
        <mxCell id="QmyyMq0J052jUOqY0bEI-73" value="" style="rhombus;whiteSpace=wrap;html=1;strokeWidth=2;fillWeight=-1;hachureGap=8;fillStyle=cross-hatch;fillColor=#006600;sketch=1;" vertex="1" parent="1">
          <mxGeometry x="70" y="508" width="120" height="60" as="geometry" />
        </mxCell>
        <mxCell id="QmyyMq0J052jUOqY0bEI-74" value="" style="verticalLabelPosition=bottom;verticalAlign=top;html=1;shape=mxgraph.basic.star" vertex="1" parent="1">
          <mxGeometry x="50" y="425.5" width="60" height="55" as="geometry" />
        </mxCell>
      </root>
    </mxGraphModel>
  </diagram>
</mxfile>
